<svg
  width="24"
  height="24"
  viewBox="0 0 24 24"
  xmlns="http://www.w3.org/2000/svg"
  fill="none"
  stroke="currentColor"
  stroke-width="2"
  stroke-linecap="round"
  stroke-linejoin="round"
>
  <path d="M17 2c3 0 5 2 5 5v2" />
  <path d="M2 9V7c0-3 2-5 5-5h5.77" />
  <path d="M22 15v2c0 3-2 5-5 5h-5.53" />
  <path d="M2 15v2c0 3 2 5 5 5" />
  <path d="M6.7 9.26l5.3 3.07 5.26-3.05" />
  <path d="M12 17.77v-5.45" />
  <path d="M10.76 6.29l-3.2 1.78c-.72.4-1.32 1.41-1.32 2.24v3.39c0 .83.59 1.84 1.32 2.24l3.2 1.78c.68.38 1.8.38 2.49 0l3.2-1.78c.72-.4 1.32-1.41 1.32-2.24v-3.39c0-.83-.59-1.84-1.32-2.24l-3.2-1.78c-.69-.39-1.81-.39-2.49 0z" />
</svg>
