<svg
  width="24"
  height="24"
  viewBox="0 0 24 24"
  xmlns="http://www.w3.org/2000/svg"
  fill="none"
  stroke="currentColor"
  stroke-width="2"
  stroke-linecap="round"
  stroke-linejoin="round"
>
  <path d="M2 12.99V15c0 5 2 7 7 7h6c5 0 7-2 7-7V9c0-5-2-7-7-7H9C4 2 2 4 2 9" />
  <path d="M9.62 17.3a2.12 2.12 0 1 0 0-4.24 2.12 2.12 0 0 0 0 4.24z" />
  <path d="M11.74 15.18V7.77" />
  <path d="M13.13 6.77l2.34.78c.57.19 1.03.83 1.03 1.43v.62c0 .81-.63 1.26-1.39 1l-2.34-.78c-.57-.19-1.03-.83-1.03-1.43v-.62c0-.8.62-1.26 1.39-1z" />
</svg>
