<svg xmlns="http://www.w3.org/2000/svg" width="24" height="24" viewBox="0 0 24 24" fill="none" stroke="currentColor" stroke-width="2" stroke-linecap="round" stroke-linejoin="round" class="feather feather-backward-15-seconds"><path d="M15.96 10.83H12.9l-.76 2.29h2.29a1.53 1.53 0 1 1 0 3.06h-2.29"></path><path d="M9.54 16.17v-5.34l-1.5 1.67"></path><path d="M10.02 4.47L12 2"></path><path d="M4.91 7.8c-1.11 1.48-1.8 3.31-1.8 5.31A8.89 8.89 0 0 0 12 22a8.89 8.89 0 0 0 8.89-8.89A8.89 8.89 0 0 0 12 4.22c-.68 0-1.34.09-1.98.24"></path></svg>