<svg
  width="24"
  height="24"
  viewBox="0 0 24 24"
  xmlns="http://www.w3.org/2000/svg"
  fill="none"
  stroke="currentColor"
  stroke-width="2"
  stroke-linecap="round"
  stroke-linejoin="round"
>
  <path d="M8.97 2c3.55 0 6.48 2.64 6.93 6.07.05.3.07.61.07.93 0 3.87-3.13 7-7 7-.32 0-.63-.02-.93-.07A6.986 6.986 0 0 1 1.97 9c0-1.93.78-3.68 2.05-4.95" />
  <path d="M21.97 15c0 3.87-3.13 7-7 7-3.55 0-6.48-2.64-6.93-6.07.3.05.61.07.93.07 3.87 0 7-3.13 7-7 0-.32-.02-.63-.07-.93 3.43.45 6.07 3.38 6.07 6.93z" />
  <path d="M14.12 14.12l1.31 1.29" />
  <path d="M16.97 12l-1-1" />
  <path d="M11.97 17l-1-1" />
</svg>
