<svg
  xmlns="http://www.w3.org/2000/svg"
  width="24"
  height="24"
  viewBox="0 0 24 24"
  class="feather feather-buildings"
  fill="none"
  stroke="currentColor"
  stroke-width="2"
  stroke-linecap="round"
  stroke-linejoin="round"
>
  <path d="M13 22H5c-2 0-3-1-3-3v-8c0-2 1-3 3-3h5v11c0 2 1 3 3 3z" />
  <path d="M10.11 4c-.08.3-.11.63-.11 1v3H5V6c0-1.1.9-2 2-2h3.11z" />
  <path d="M14 8v5" />
  <path d="M18 8v5" />
  <path d="M17 17h-2c-.55 0-1 .45-1 1v4h4v-4c0-.55-.45-1-1-1z" />
  <path d="M6 13v4" />
  <path d="M10 19V5c0-2 1-3 3-3h6c2 0 3 1 3 3v14c0 2-1 3-3 3h-6c-2 0-3-1-3-3z" />
</svg>
