<svg
  xmlns="http://www.w3.org/2000/svg"
  width="24"
  height="24"
  viewBox="0 0 24 24"
  class="feather feather-building-4"
  fill="none"
  stroke="currentColor"
  stroke-width="2"
  stroke-linecap="round"
  stroke-linejoin="round"
>
  <path d="M1 22h22" />
  <path d="M19.78 22.01v-4.46" />
  <path d="M19.8 10.89c-1.22 0-2.2.98-2.2 2.2v2.27c0 1.22.98 2.2 2.2 2.2 1.22 0 2.2-.98 2.2-2.2v-2.27c0-1.22-.98-2.2-2.2-2.2z" />
  <path d="M2.1 22V6.03c0-2.01 1-3.02 2.99-3.02h6.23c1.99 0 2.98 1.01 2.98 3.02V22" />
  <path d="M5.8 8.25h4.95" />
  <path d="M5.8 12h4.95" />
  <path d="M8.25 22v-3.75" />
</svg>
