<svg
  xmlns="http://www.w3.org/2000/svg"
  width="24"
  height="24"
  viewBox="0 0 24 24"
  class="feather feather-calendar-search"
  fill="none"
  stroke="currentColor"
  stroke-width="2"
  stroke-linecap="round"
  stroke-linejoin="round"
>
  <path d="M8 2v3" />
  <path d="M16 2v3" />
  <path d="M18.2 21.4a3.2 3.2 0 1 0 0-6.4 3.2 3.2 0 0 0 0 6.4z" />
  <path d="M22 22l-1-1" />
  <path d="M3.5 9.09h17" />
  <path d="M13.37 22H8c-3.5 0-5-2-5-5V8.5c0-3 1.5-5 5-5h8c3.5 0 5 2 5 5V13" />
  <path d="M11.995 13.7h.01" />
  <path d="M8.294 13.7h.01" />
  <path d="M8.294 16.7h.01" />
</svg>
