<svg xmlns="http://www.w3.org/2000/svg" width="24" height="24" viewBox="0 0 24 24" fill="none" stroke="currentColor" stroke-width="2" stroke-linecap="round" stroke-linejoin="round" class="feather feather-calendar-circle"><path d="M12 22c5.523 0 10-4.477 10-10S17.523 2 12 2 2 6.477 2 12s4.477 10 10 10z"></path><path d="M9.89 5.83v2"></path><path d="M14.11 5.83v2"></path><path d="M7.53 10.14h8.94"></path><path d="M13.5 17.67h-3c-2.5 0-4-1.8-4-4v-3c0-2.2 1.5-4 4-4h3c2.5 0 4 1.8 4 4v3c0 2.2-1.5 4-4 4z"></path></svg>