<svg xmlns="http://www.w3.org/2000/svg" width="24" height="24" viewBox="0 0 24 24" fill="none" stroke="currentColor" stroke-width="2" stroke-linecap="round" stroke-linejoin="round" class="feather feather-candle-2"><path d="M22 17.5h-7"></path><path d="M5 17.5H2"></path><path d="M22 6.5h-3"></path><path d="M9 6.5H2"></path><path d="M7 14.5h6c1.1 0 2 .5 2 2v2c0 1.5-.9 2-2 2H7c-1.1 0-2-.5-2-2v-2c0-1.5.9-2 2-2z"></path><path d="M11 3.5h6c1.1 0 2 .5 2 2v2c0 1.5-.9 2-2 2h-6c-1.1 0-2-.5-2-2v-2c0-1.5.9-2 2-2z"></path></svg>