<svg
  xmlns="http://www.w3.org/2000/svg"
  width="24"
  height="24"
  viewBox="0 0 24 24"
  class="feather feather-category-2"
  fill="none"
  stroke="currentColor"
  stroke-width="2"
  stroke-linecap="round"
  stroke-linejoin="round"
>
  <path d="M17 10h2c2 0 3-1 3-3V5c0-2-1-3-3-3h-2c-2 0-3 1-3 3v2c0 2 1 3 3 3z" />
  <path d="M5 22h2c2 0 3-1 3-3v-2c0-2-1-3-3-3H5c-2 0-3 1-3 3v2c0 2 1 3 3 3z" />
  <path d="M6 10a4 4 0 1 0 0-8 4 4 0 0 0 0 8z" />
  <path d="M18 22a4 4 0 1 0 0-8 4 4 0 0 0 0 8z" />
</svg>
