<svg
  xmlns="http://www.w3.org/2000/svg"
  width="24"
  height="24"
  viewBox="0 0 24 24"
  class="feather feather-chart"
  fill="none"
  stroke="currentColor"
  stroke-width="2"
  stroke-linecap="round"
  stroke-linejoin="round"
>
  <path d="M3 22h18" />
  <path d="M5.6 8.38H4c-.55 0-1 .45-1 1V18c0 .55.45 1 1 1h1.6c.55 0 1-.45 1-1V9.38c0-.55-.45-1-1-1z" />
  <path d="M12.8 5.19h-1.6c-.55 0-1 .45-1 1V18c0 .55.45 1 1 1h1.6c.55 0 1-.45 1-1V6.19c0-.55-.45-1-1-1z" />
  <path d="M20 2h-1.6c-.55 0-1 .45-1 1v15c0 .55.45 1 1 1H20c.55 0 1-.45 1-1V3c0-.55-.45-1-1-1z" />
</svg>
