<svg
  xmlns="http://www.w3.org/2000/svg"
  width="24"
  height="24"
  viewBox="0 0 24 24"
  class="feather feather-check"
  fill="none"
  stroke="currentColor"
  stroke-width="2"
  stroke-linecap="round"
  stroke-linejoin="round"
>
  <path d="M11.02 19.5H7.5c-.62 0-1.17-.02-1.66-.09-2.63-.29-3.34-1.53-3.34-4.91v-5c0-3.38.71-4.62 3.34-4.91.49-.07 1.04-.09 1.66-.09h3.46" />
  <path d="M15.02 4.5h1.48c.62 0 1.17.02 1.66.09 2.63.29 3.34 1.53 3.34 4.91v5c0 3.38-.71 4.62-3.34 4.91-.49.07-1.04.09-1.66.09h-1.48" />
  <path d="M15 2v20" />
  <path d="M8 8.5v7" />
</svg>
