<svg
  width="24"
  height="24"
  viewBox="0 0 24 24"
  xmlns="http://www.w3.org/2000/svg"
  fill="none"
  stroke="currentColor"
  stroke-width="2"
  stroke-linecap="round"
  stroke-linejoin="round"
>
  <path d="M9.97 20l-2 2" />
  <path d="M13.97 20l-2 2" />
  <path d="M13.97 16l-2 2" />
  <path d="M9.97 16l-2 2" />
  <path d="M12 3.98c-3.99-.34-8.34 3.11-6.38 8.58" />
  <path d="M16.61 20c1.34.01 2.63-.49 3.62-1.39 3.27-2.86 1.52-8.6-2.79-9.14-.24-1.45-.77-2.59-1.48-3.45" />
  <path d="M7.28 12.97c-.53-.27-1.12-.41-1.71-.4-4.66.33-4.65 7.11 0 7.44" />
  <path d="M15.82 9.89c.52-.26 1.08-.4 1.66-.41" />
</svg>
