<svg
  width="24"
  height="24"
  viewBox="0 0 24 24"
  xmlns="http://www.w3.org/2000/svg"
  fill="none"
  stroke="currentColor"
  stroke-width="2"
  stroke-linecap="round"
  stroke-linejoin="round"
>
  <path d="M2 13.55v-3.08a4.21 4.21 0 0 1 4.21-4.21h7.37a4.21 4.21 0 0 1 4.21 4.21v7.32A4.21 4.21 0 0 1 13.58 22H6.21C3.89 22 2 20.11 2 17.79" />
  <path d="M5.5 4V2.25" />
  <path d="M9.5 4V2.25" />
  <path d="M13.5 4V2.25" />
  <path d="M22 13.16c0 2.32-1.89 4.21-4.21 4.21V8.95A4.21 4.21 0 0 1 22 13.16z" />
  <path d="M2 12h15.51" />
</svg>
