<svg
  width="24"
  height="24"
  viewBox="0 0 24 24"
  xmlns="http://www.w3.org/2000/svg"
  fill="none"
  stroke="currentColor"
  stroke-width="2"
  stroke-linecap="round"
  stroke-linejoin="round"
>
  <path d="M18.85 2h-2.7C13.9 2 13 2.9 13 5.15v3.7c0 2.25.9 3.15 3.15 3.15h2.7C21.1 12 22 11.1 22 8.85V5.96" />
  <path d="M5.15 22h2.7c2.25 0 3.15-.9 3.15-3.15v-3.7C11 12.9 10.1 12 7.85 12h-2.7C2.9 12 2 12.9 2 15.15v3.01" />
  <path d="M22 15c0 3.87-3.13 7-7 7l1.05-1.75" />
  <path d="M2 9c0-3.87 3.13-7 7-7L7.95 3.75" />
</svg>
