<svg
  xmlns="http://www.w3.org/2000/svg"
  width="24"
  height="24"
  viewBox="0 0 24 24"
  class="feather feather-cpu"
  fill="none"
  stroke="currentColor"
  stroke-width="2"
  stroke-linecap="round"
  stroke-linejoin="round"
>
  <path d="M9.6 20h4.8c4 0 5.6-1.6 5.6-5.6V9.6c0-4-1.6-5.6-5.6-5.6H9.6C5.6 4 4 5.6 4 9.6v4.8c0 4 1.6 5.6 5.6 5.6z" />
  <path d="M10.5 17h3c2.5 0 3.5-1 3.5-3.5v-3C17 8 16 7 13.5 7h-3C8 7 7 8 7 10.5v3C7 16 8 17 10.5 17z" />
  <path d="M8.01 4V2" />
  <path d="M12 4V2" />
  <path d="M16 4V2" />
  <path d="M20 8h2" />
  <path d="M20 12h2" />
  <path d="M20 16h2" />
  <path d="M16 20v2" />
  <path d="M12.01 20v2" />
  <path d="M8.01 20v2" />
  <path d="M2 8h2" />
  <path d="M2 12h2" />
  <path d="M2 16h2" />
</svg>
