<svg xmlns="http://www.w3.org/2000/svg" width="24" height="24" viewBox="0 0 24 24" fill="none" stroke="currentColor" stroke-width="2" stroke-linecap="round" stroke-linejoin="round" class="feather feather-creative-commons"><path d="M12 22C6.48 22 2 17.52 2 12S6.48 2 12 2s10 4.48 10 10-4.48 10-10 10z"></path><path d="M10.88 14.15c-.51.44-1.17.72-1.89.72A2.87 2.87 0 0 1 6.12 12c0-1.59 1.28-2.87 2.87-2.87.73 0 1.39.27 1.89.72"></path><path d="M17.88 14.15c-.51.44-1.17.72-1.89.72A2.87 2.87 0 0 1 13.12 12c0-1.59 1.28-2.87 2.87-2.87.73 0 1.39.27 1.89.72"></path></svg>