<svg xmlns="http://www.w3.org/2000/svg" width="24" height="24" viewBox="0 0 24 24" fill="none" stroke="currentColor" stroke-width="2" stroke-linecap="round" stroke-linejoin="round" class="feather feather-data-2"><path d="M7 8H4c-1.1 0-2-.9-2-2V4c0-1.1.9-2 2-2h3c1.1 0 2 .9 2 2v2c0 1.1-.9 2-2 2z"></path><path d="M20.8 7h-3.6c-.66 0-1.2-.54-1.2-1.2V4.2c0-.66.54-1.2 1.2-1.2h3.6c.66 0 1.2.54 1.2 1.2v1.6c0 .66-.54 1.2-1.2 1.2z"></path><path d="M20.8 14.5h-3.6c-.66 0-1.2-.54-1.2-1.2v-1.6c0-.66.54-1.2 1.2-1.2h3.6c.66 0 1.2.54 1.2 1.2v1.6c0 .66-.54 1.2-1.2 1.2z"></path><path d="M9 5h7"></path><path d="M12.5 5v13c0 1.1.9 2 2 2H16"></path><path d="M12.5 5v13c0 1.1.9 2 2 2H16"></path><path d="M12.5 12.5H16"></path><path d="M20.8 22h-3.6c-.66 0-1.2-.54-1.2-1.2v-1.6c0-.66.54-1.2 1.2-1.2h3.6c.66 0 1.2.54 1.2 1.2v1.6c0 .66-.54 1.2-1.2 1.2z"></path></svg>