<svg xmlns="http://www.w3.org/2000/svg" width="24" height="24" viewBox="0 0 24 24" fill="none" stroke="currentColor" stroke-width="2" stroke-linecap="round" stroke-linejoin="round" class="feather feather-document-sketch"><path d="M22 10v5c0 5-2 7-7 7H9c-5 0-7-2-7-7V9c0-5 2-7 7-7h5"></path><path d="M22 10h-4c-3 0-4-1-4-4V2l8 8z"></path><path clip-rule="evenodd" d="M8.32 12h2.65c.27 0 .61.18.75.4l1.13 1.7c.23.34.18.85-.11 1.14l-2.46 2.46c-.35.35-.93.35-1.28 0l-2.46-2.46a.935.935 0 0 1-.11-1.14l1.13-1.7c.16-.22.5-.4.76-.4z"></path></svg>