<svg
  width="24"
  height="24"
  viewBox="0 0 24 24"
  xmlns="http://www.w3.org/2000/svg"
  fill="none"
  stroke="currentColor"
  stroke-width="2"
  stroke-linecap="round"
  stroke-linejoin="round"
>
  <path d="M12 9.12c.91 0 1.65.74 1.65 1.65v2.47c0 .91-.74 1.65-1.65 1.65-.91 0-1.65-.74-1.65-1.65" />
  <path d="M16.98 13.47c-.2 2.58-2.36 4.6-4.98 4.6-2.76 0-5-2.24-5-5v-2.14c0-2.76 2.24-5 5-5 2.59 0 4.72 1.97 4.97 4.49" />
  <path d="M15 2h2c3 0 5 2 5 5v2" />
  <path d="M2 9V7c0-3 2-5 5-5h2" />
  <path d="M15 22h2c3 0 5-2 5-5v-2" />
  <path d="M2 15v2c0 3 2 5 5 5h2" />
</svg>
