<svg
  xmlns="http://www.w3.org/2000/svg"
  width="24"
  height="24"
  viewBox="0 0 24 24"
  class="feather feather-global"
  fill="none"
  stroke="currentColor"
  stroke-width="2"
  stroke-linecap="round"
  stroke-linejoin="round"
>
  <path d="M12 22c5.523 0 10-4.477 10-10S17.523 2 12 2 2 6.477 2 12s4.477 10 10 10z" />
  <path d="M8 3h1a28.424 28.424 0 0 0 0 18H8" />
  <path d="M15 3a28.424 28.424 0 0 1 0 18" />
  <path d="M3 16v-1a28.424 28.424 0 0 0 18 0v1" />
  <path d="M3 9a28.424 28.424 0 0 1 18 0" />
</svg>
