<svg
  xmlns="http://www.w3.org/2000/svg"
  width="24"
  height="24"
  viewBox="0 0 24 24"
  class="feather feather-global-search"
  fill="none"
  stroke="currentColor"
  stroke-width="2"
  stroke-linecap="round"
  stroke-linejoin="round"
>
  <path d="M22 12c0-5.52-4.48-10-10-10S2 6.48 2 12s4.48 10 10 10" />
  <path d="M8 3h1a28.424 28.424 0 0 0 0 18H8" />
  <path d="M15 3c.97 2.92 1.46 5.96 1.46 9" />
  <path d="M3 16v-1c2.92.97 5.96 1.46 9 1.46" />
  <path d="M3 9a28.424 28.424 0 0 1 18 0" />
  <path d="M18.2 21.4a3.2 3.2 0 1 0 0-6.4 3.2 3.2 0 0 0 0 6.4z" />
  <path d="M22 22l-1-1" />
</svg>
