<svg
  xmlns="http://www.w3.org/2000/svg"
  width="24"
  height="24"
  viewBox="0 0 24 24"
  class="feather feather-hierarchy-square"
  fill="none"
  stroke="currentColor"
  stroke-width="2"
  stroke-linecap="round"
  stroke-linejoin="round"
>
  <path d="M16.45 14.4V8.5c0-.55-.45-1-1-1h-2.9" />
  <path d="M14.05 6l-1.8 1.5 1.8 1.5" />
  <path d="M7.55 10.2v4.2" />
  <path d="M7.7 9.9a1.95 1.95 0 1 0 0-3.9 1.95 1.95 0 0 0 0 3.9z" />
  <path d="M7.55 18a1.8 1.8 0 1 0 0-3.6 1.8 1.8 0 0 0 0 3.6z" />
  <path d="M16.45 18a1.8 1.8 0 1 0 0-3.6 1.8 1.8 0 0 0 0 3.6z" />
  <path d="M9 22h6c5 0 7-2 7-7V9c0-5-2-7-7-7H9C4 2 2 4 2 9v6c0 5 2 7 7 7z" />
</svg>
