<svg
  width="24"
  height="24"
  viewBox="0 0 24 24"
  xmlns="http://www.w3.org/2000/svg"
  fill="none"
  stroke="currentColor"
  stroke-width="2"
  stroke-linecap="round"
  stroke-linejoin="round"
>
  <path d="M16.98 10.02L19.5 7.5c.83-.83.83-2.17 0-3-.83-.83-2.17-.83-3 0l-13 13c-.83.83-.83 2.17 0 3 .83.83 2.17.83 3 0l8-8" />
  <path d="M18.01 8.99l-3-3" />
  <path d="M9.56 3.5L10 5l-1.5-.44L7 5l.44-1.5L7 2l1.5.44" />
  <path d="M4.5 8.44L6 8l-.44 1.5L6 11l-1.5-.44L3 11l.44-1.5L3 8l1.5.44z" />
  <path d="M18.44 14.5L18 13l1.5.44L21 13l-.44 1.5L21 16l-1.5-.44" />
</svg>
