<svg
  xmlns="http://www.w3.org/2000/svg"
  width="24"
  height="24"
  viewBox="0 0 24 24"
  class="feather feather-mask"
  fill="none"
  stroke="currentColor"
  stroke-width="2"
  stroke-linecap="round"
  stroke-linejoin="round"
>
  <path d="M19.07 4.93L4.93 19.07A9.969 9.969 0 0 1 2 12C2 6.48 6.48 2 12 2c2.76 0 5.26 1.12 7.07 2.93z" />
  <path d="M22 12c0 5.52-4.48 10-10 10-2.76 0-5.26-1.12-7.07-2.93L19.07 4.93A9.969 9.969 0 0 1 22 12z" />
  <path d="M7.76 16.24l5.65 5.66" />
  <path d="M11.29 12.71l6.58 6.57" />
  <path d="M14.83 9.17l6.29 6.3" />
</svg>
