<svg
  width="24"
  height="24"
  viewBox="0 0 24 24"
  xmlns="http://www.w3.org/2000/svg"
  fill="none"
  stroke="currentColor"
  stroke-width="2"
  stroke-linecap="round"
  stroke-linejoin="round"
>
  <path d="M17 3h4v4" />
  <path d="M15 9l6-6" />
  <path d="M7 21H3v-4" />
  <path d="M9 15l-6 6" />
  <path d="M7.64 3A9.995 9.995 0 0 0 2 12c0 .69.07 1.36.2 2" />
  <path d="M14.02 2.2C13.37 2.07 12.69 2 12 2" />
  <path d="M9.98 21.8c.65.13 1.33.2 2.02.2 5.52 0 10-4.48 10-10 0-.68-.07-1.35-.2-2" />
</svg>
