<svg
  xmlns="http://www.w3.org/2000/svg"
  width="24"
  height="24"
  viewBox="0 0 24 24"
  class="feather feather-menu-1"
  fill="none"
  stroke="currentColor"
  stroke-width="2"
  stroke-linecap="round"
  stroke-linejoin="round"
>
  <path d="M17.54 8.31a2.46 2.46 0 1 0 0-4.92 2.46 2.46 0 0 0 0 4.92z" />
  <path d="M6.46 8.31a2.46 2.46 0 1 0 0-4.92 2.46 2.46 0 0 0 0 4.92z" />
  <path d="M17.54 20.61a2.46 2.46 0 1 0 0-4.92 2.46 2.46 0 0 0 0 4.92z" />
  <path d="M6.46 20.61a2.46 2.46 0 1 0 0-4.92 2.46 2.46 0 0 0 0 4.92z" />
</svg>
