<svg
  width="24"
  height="24"
  viewBox="0 0 24 24"
  xmlns="http://www.w3.org/2000/svg"
  fill="none"
  stroke="currentColor"
  stroke-width="2"
  stroke-linecap="round"
  stroke-linejoin="round"
>
  <path d="M17.54 8.31a2.46 2.46 0 1 0 0-4.92 2.46 2.46 0 0 0 0 4.92z" />
  <path d="M8.92 5.85c0-1.36-1.1-2.46-2.46-2.46C5.1 3.39 4 4.49 4 5.85c0 1.36 1.1 2.46 2.46 2.46" />
  <path d="M17.54 20.62c1.36 0 2.46-1.1 2.46-2.46 0-1.36-1.1-2.46-2.46-2.46-1.36 0-2.46 1.1-2.46 2.46" />
  <path d="M6.46 20.61a2.46 2.46 0 1 0 0-4.92 2.46 2.46 0 0 0 0 4.92z" />
</svg>
