<svg
  xmlns="http://www.w3.org/2000/svg"
  width="24"
  height="24"
  viewBox="0 0 24 24"
  class="feather feather-menu-board"
  fill="none"
  stroke="currentColor"
  stroke-width="2"
  stroke-linecap="round"
  stroke-linejoin="round"
>
  <path d="M21.93 6.76l-3.37 13.53A2.228 2.228 0 0 1 16.38 22H3.24c-1.51 0-2.59-1.48-2.14-2.93L5.31 5.55a2.25 2.25 0 0 1 2.14-1.59h12.3c.95 0 1.74.58 2.07 1.38.19.43.23.92.11 1.42z" />
  <path d="M16 22h4.78c1.29 0 2.3-1.09 2.21-2.38L22 6" />
  <path d="M9.68 6.38l1.04-4.32" />
  <path d="M16.38 6.39l.94-4.34" />
  <path d="M7.7 12h8" />
  <path d="M6.7 16h8" />
</svg>
