<svg
  xmlns="http://www.w3.org/2000/svg"
  width="24"
  height="24"
  viewBox="0 0 24 24"
  class="feather feather-message-search"
  fill="none"
  stroke="currentColor"
  stroke-width="2"
  stroke-linecap="round"
  stroke-linejoin="round"
>
  <path d="M13.2 21.37c-.66.88-1.74.88-2.4 0l-1.5-2c-.17-.22-.53-.4-.8-.4H8c-4 0-6-1-6-6v-5c0-4 2-6 6-6h8c4 0 6 2 6 6v5" />
  <path d="M18.2 21.4a3.2 3.2 0 1 0 0-6.4 3.2 3.2 0 0 0 0 6.4z" />
  <path d="M22 22l-1-1" />
  <path d="M15.996 11h.01" />
  <path d="M11.995 11h.01" />
  <path d="M7.995 11h.008" />
</svg>
