<svg
  width="24"
  height="24"
  viewBox="0 0 24 24"
  xmlns="http://www.w3.org/2000/svg"
  fill="none"
  stroke="currentColor"
  stroke-width="2"
  stroke-linecap="round"
  stroke-linejoin="round"
>
  <path d="M16 6.3V6c0-2.21-1.79-4-4-4S8 3.79 8 6v5" />
  <path d="M9.04 14.19c.73.81 1.79 1.31 2.96 1.31 2.21 0 4-1.79 4-4V11" />
  <path d="M18.72 15.02c.6-1.09.93-2.34.93-3.67v-1.7" />
  <path d="M6.78 16.95A7.648 7.648 0 0 0 12 19c1.18 0 2.31-.27 3.31-.75" />
  <path d="M4.35 9.65v1.7c0 1.06.21 2.06.6 2.98" />
  <path d="M20.07 2.84L3.93 18.99" />
  <path d="M11 3v3" />
  <path d="M12 19v3" />
</svg>
