<svg
  width="24"
  height="24"
  viewBox="0 0 24 24"
  xmlns="http://www.w3.org/2000/svg"
  fill="none"
  stroke="currentColor"
  stroke-width="2"
  stroke-linecap="round"
  stroke-linejoin="round"
>
  <path d="M8 10.02v1.48c0 2.21 1.79 4 4 4s4-1.79 4-4V6c0-2.21-1.79-4-4-4S8 3.79 8 6" />
  <path d="M4.35 9.65v1.7C4.35 15.57 7.78 19 12 19c4.22 0 7.65-3.43 7.65-7.65v-1.7" />
  <path d="M10.61 6.43c.9-.33 1.88-.33 2.78 0" />
  <path d="M11.2 8.55c.53-.14 1.08-.14 1.61 0" />
  <path d="M12 19v3" />
</svg>
