<svg
  xmlns="http://www.w3.org/2000/svg"
  width="24"
  height="24"
  viewBox="0 0 24 24"
  class="feather feather-money-time"
  fill="none"
  stroke="currentColor"
  stroke-width="2"
  stroke-linecap="round"
  stroke-linejoin="round"
>
  <path d="M12 14.5a2.5 2.5 0 1 0 0-5 2.5 2.5 0 0 0 0 5z" />
  <path d="M18.5 9.5v5" />
  <path d="M5 22a4 4 0 1 0 0-8 4 4 0 0 0 0 8z" />
  <path d="M5.25 16.75v.93c0 .35-.18.68-.49.86L4 19" />
  <path d="M2 15.2V9c0-3.5 2-5 5-5h10c3 0 5 1.5 5 5v6c0 3.5-2 5-5 5H8.5" />
</svg>
