<svg
  xmlns="http://www.w3.org/2000/svg"
  width="24"
  height="24"
  viewBox="0 0 24 24"
  class="feather feather-money-2"
  fill="none"
  stroke="currentColor"
  stroke-width="2"
  stroke-linecap="round"
  stroke-linejoin="round"
>
  <path d="M17 20.5H7c-3 0-5-1.5-5-5v-7c0-3.5 2-5 5-5h10c3 0 5 1.5 5 5v7c0 3.5-2 5-5 5z" />
  <path d="M12 15a3 3 0 1 0 0-6 3 3 0 0 0 0 6z" />
  <path d="M2 9h1c3 0 4-1 4-4V4" />
  <path d="M22 9h-1c-3 0-4-1-4-4V4" />
  <path d="M2 15h1c3 0 4 1 4 4v1" />
  <path d="M22 15h-1c-3 0-4 1-4 4v1" />
</svg>
