<svg xmlns="http://www.w3.org/2000/svg" width="24" height="24" viewBox="0 0 24 24" fill="none" stroke="currentColor" stroke-width="2" stroke-linecap="round" stroke-linejoin="round" class="feather feather-money-change"><path d="M2 11V9c0-3.5 2-5 5-5h10c3 0 5 1.5 5 5v6c0 3.5-2 5-5 5h-5"></path><path d="M12 14.5a2.5 2.5 0 1 0 0-5 2.5 2.5 0 0 0 0 5z"></path><path d="M18.5 9.5v5"></path><path d="M2 15.5h5.34c.64 0 1.16.52 1.16 1.16v1.28"></path><path d="M3.22 14.28L2 15.5l1.22 1.22"></path><path d="M8.5 20.78H3.16c-.64 0-1.16-.52-1.16-1.16v-1.28"></path><path d="M7.281 22l1.22-1.22-1.22-1.22"></path></svg>