<svg xmlns="http://www.w3.org/2000/svg" width="24" height="24" viewBox="0 0 24 24" fill="none" stroke="currentColor" stroke-width="2" stroke-linecap="round" stroke-linejoin="round" class="feather feather-money-add"><path d="M12 14.5a2.5 2.5 0 1 0 0-5 2.5 2.5 0 0 0 0 5z"></path><path d="M18.5 9.5v5"></path><path d="M9 18c0 .75-.21 1.46-.58 2.06A3.97 3.97 0 0 1 5 22a3.97 3.97 0 0 1-3.42-1.94A3.92 3.92 0 0 1 1 18c0-2.21 1.79-4 4-4s4 1.79 4 4z"></path><path d="M6.492 17.98h-2.98"></path><path d="M5 16.52v2.99"></path><path d="M2 15.3V9c0-3.5 2-5 5-5h10c3 0 5 1.5 5 5v6c0 3.5-2 5-5 5H8.5"></path></svg>