<svg
  width="24"
  height="24"
  viewBox="0 0 24 24"
  xmlns="http://www.w3.org/2000/svg"
  fill="none"
  stroke="currentColor"
  stroke-width="2"
  stroke-linecap="round"
  stroke-linejoin="round"
>
  <path d="M2 3h3" />
  <path d="M8 3h14" />
  <path d="M2 9h9" />
  <path d="M2 15h6" />
  <path d="M2 21h4" />
  <path d="M11.84 22a2.18 2.18 0 1 0 0-4.36 2.18 2.18 0 0 0 0 4.36z" />
  <path d="M22 18.37V9.86c0-1.81-1.14-2.06-2.29-1.75L15.36 9.3c-.79.22-1.34.84-1.34 1.75v8.77" />
  <path d="M19.82 20.55a2.18 2.18 0 1 0 0-4.36 2.18 2.18 0 0 0 0 4.36z" />
  <path d="M20.371 11.87l1.63-.45" />
  <path d="M14.02 13.6l2.35-.64" />
</svg>
