<svg
  width="24"
  height="24"
  viewBox="0 0 24 24"
  xmlns="http://www.w3.org/2000/svg"
  fill="none"
  stroke="currentColor"
  stroke-width="2"
  stroke-linecap="round"
  stroke-linejoin="round"
>
  <path d="M2 12c0-3.5 2-5 5-5h10c3 0 5 1.5 5 5v5c0 3.5-2 5-5 5H7c-3 0-5-1.5-5-5v-.83" />
  <path d="M16 4.5h2" />
  <path d="M6 4.5h7.17" />
  <path d="M9 2h6" />
  <path d="M8.89 19.11a1.37 1.37 0 1 0 0-2.74 1.37 1.37 0 0 0 0 2.74z" />
  <path d="M15.28 16.83v-5.35c0-1.14-.71-1.3-1.44-1.1l-2.74.75c-.5.14-.84.53-.84 1.1v5.51" />
  <path d="M13.91 18.2a1.37 1.37 0 1 0-.001-2.74 1.37 1.37 0 0 0 0 2.74z" />
  <path d="M10.26 13.83l5.02-1.37" />
</svg>
