<svg
  xmlns="http://www.w3.org/2000/svg"
  width="24"
  height="24"
  viewBox="0 0 24 24"
  class="feather feather-play-cricle"
  fill="none"
  stroke="currentColor"
  stroke-width="2"
  stroke-linecap="round"
  stroke-linejoin="round"
>
  <path d="M19.07 19.07c3.91-3.91 3.91-10.24 0-14.14" />
  <path d="M4.93 4.93c-3.91 3.91-3.91 10.24 0 14.14" />
  <path d="M8.7 21.41c1.07.37 2.18.55 3.3.55 1.12-.01 2.23-.18 3.3-.55" />
  <path d="M8.7 2.59c1.07-.37 2.18-.55 3.3-.55 1.12 0 2.23.18 3.3.55" />
  <path d="M8.74 12v-1.67c0-2.08 1.47-2.93 3.27-1.89l1.45.84 1.45.84c1.8 1.04 1.8 2.74 0 3.78l-1.45.84-1.45.84c-1.8 1.04-3.27.19-3.27-1.89V12z" />
</svg>
