<svg
  xmlns="http://www.w3.org/2000/svg"
  width="24"
  height="24"
  viewBox="0 0 24 24"
  class="feather feather-programming-arrow"
  fill="none"
  stroke="currentColor"
  stroke-width="2"
  stroke-linecap="round"
  stroke-linejoin="round"
>
  <path d="M19 16V6.5c0-1.1-.9-2-2-2h-4.5" />
  <path d="M15 2l-3 2.5L15 7" />
  <path d="M5 9v7" />
  <path d="M5.25 8.5a3.25 3.25 0 1 0 0-6.5 3.25 3.25 0 0 0 0 6.5z" />
  <path d="M5 22a3 3 0 1 0 0-6 3 3 0 0 0 0 6z" />
  <path d="M19 22a3 3 0 1 0 0-6 3 3 0 0 0 0 6z" />
</svg>
