<svg xmlns="http://www.w3.org/2000/svg" width="24" height="24" viewBox="0 0 24 24" fill="none" stroke="currentColor" stroke-width="2" stroke-linecap="round" stroke-linejoin="round" class="feather feather-radar-1"><path d="M12 14a2 2 0 1 0 0-4 2 2 0 0 0 0 4z"></path><path d="M20 18c1.26-1.67 2-3.75 2-6s-.74-4.33-2-6"></path><path d="M4 6c-1.26 1.67-2 3.75-2 6s.74 4.33 2 6"></path><path d="M16.8 15.6c.75-1 1.2-2.25 1.2-3.6s-.45-2.6-1.2-3.6"></path><path d="M7.2 8.4C6.45 9.4 6 10.65 6 12s.45 2.6 1.2 3.6"></path></svg>