<svg
  width="24"
  height="24"
  viewBox="0 0 24 24"
  xmlns="http://www.w3.org/2000/svg"
  fill="none"
  stroke="currentColor"
  stroke-width="2"
  stroke-linecap="round"
  stroke-linejoin="round"
>
  <path d="M8.01 14.51c.18.3.4.58.65.83a4.732 4.732 0 0 0 6.68 0 4.71 4.71 0 0 0 1.32-2.67" />
  <path d="M7.34 11.33c.14-.98.57-1.92 1.32-2.67a4.732 4.732 0 0 1 6.68 0c.26.26.47.54.65.83" />
  <path d="M7.82 17.18v-2.67h2.67" />
  <path d="M16.18 6.82v2.67h-2.67" />
  <path d="M4 6c-1.25 1.67-2 3.75-2 6 0 5.52 4.48 10 10 10s10-4.48 10-10S17.52 2 12 2c-1.43 0-2.8.3-4.03.85" />
</svg>
