<svg
  width="24"
  height="24"
  viewBox="0 0 24 24"
  xmlns="http://www.w3.org/2000/svg"
  fill="none"
  stroke="currentColor"
  stroke-width="2"
  stroke-linecap="round"
  stroke-linejoin="round"
>
  <path d="M2 9V6.5C2 4.01 4.01 2 6.5 2H9" />
  <path d="M15 2h2.5C19.99 2 22 4.01 22 6.5V9" />
  <path d="M22 16v1.5c0 2.49-2.01 4.5-4.5 4.5H16" />
  <path d="M9 22H6.5C4.01 22 2 19.99 2 17.5V15" />
  <path d="M17 9.5v5c0 2-1 3-3 3h-4c-2 0-3-1-3-3v-5c0-2 1-3 3-3h4" />
  <path d="M19 12H5" />
</svg>
