<svg
  width="24"
  height="24"
  viewBox="0 0 24 24"
  xmlns="http://www.w3.org/2000/svg"
  fill="none"
  stroke="currentColor"
  stroke-width="2"
  stroke-linecap="round"
  stroke-linejoin="round"
>
  <path d="M2 9V6.5C2 4.01 4.01 2 6.5 2H9" />
  <path d="M15 2h2.5C19.99 2 22 4.01 22 6.5V9" />
  <path d="M22 16v1.5c0 2.49-2.01 4.5-4.5 4.5H16" />
  <path d="M9 22H6.5C4.01 22 2 19.99 2 17.5V15" />
  <path d="M11 8.5a2.5 2.5 0 0 1-5 0A2.5 2.5 0 0 1 8.5 6" />
  <path d="M7.5 18a1.5 1.5 0 1 0 0-3 1.5 1.5 0 0 0 0 3z" />
  <path d="M16.5 9a1.5 1.5 0 1 0 0-3 1.5 1.5 0 0 0 0 3z" />
  <path d="M13 15.5c0-.69.28-1.32.73-1.77A2.5 2.5 0 1 1 15.5 18" />
</svg>
