<svg
  width="24"
  height="24"
  viewBox="0 0 24 24"
  xmlns="http://www.w3.org/2000/svg"
  fill="none"
  stroke="currentColor"
  stroke-width="2"
  stroke-linecap="round"
  stroke-linejoin="round"
>
  <path d="M2 13.01V15c0 5 2 7 7 7h6c5 0 7-2 7-7V9c0-5-2-7-7-7H9C4 2 2 4 2 9" />
  <path d="M15.57 18.5v-3.9" />
  <path d="M15.57 7.45V5.5" />
  <path d="M12.98 10.05c0-1.44 1.16-2.6 2.6-2.6 1.44 0 2.6 1.16 2.6 2.6 0 1.44-1.16 2.6-2.6 2.6" />
  <path d="M8.43 18.5v-1.95" />
  <path d="M8.43 9.4V5.5" />
  <path d="M8.43 16.55a2.6 2.6 0 1 0 0-5.2 2.6 2.6 0 0 0 0 5.2z" />
</svg>
