<svg
  width="24"
  height="24"
  viewBox="0 0 24 24"
  xmlns="http://www.w3.org/2000/svg"
  fill="none"
  stroke="currentColor"
  stroke-width="2"
  stroke-linecap="round"
  stroke-linejoin="round"
>
  <path d="M16.96 6.17c2 1.39 3.38 3.6 3.66 6.15" />
  <path d="M3.49 12.37a8.601 8.601 0 0 1 3.6-6.15" />
  <path d="M8.19 20.94c1.16.59 2.48.92 3.87.92 1.34 0 2.6-.3 3.73-.85" />
  <path d="M9.28 4.92a2.78 2.78 0 1 0 2.78-2.78" />
  <path d="M4.83 19.92a2.78 2.78 0 1 0 0-5.56 2.78 2.78 0 0 0 0 5.56z" />
  <path d="M21.94 17.14a2.78 2.78 0 1 0-2.78 2.78" />
</svg>
