<svg
  width="24"
  height="24"
  viewBox="0 0 24 24"
  xmlns="http://www.w3.org/2000/svg"
  fill="none"
  stroke="currentColor"
  stroke-width="2"
  stroke-linecap="round"
  stroke-linejoin="round"
>
  <path d="M4.84 19.48A9.966 9.966 0 0 1 2 12.49C2 8.8 4 5.58 6.97 3.84c.31-.18.63-.35.97-.49" />
  <path d="M19.14 19.5a9.964 9.964 0 0 0 2.86-7c0-5.52-4.48-10-10-10" />
  <path d="M8.62 18.12c0 1.86 1.51 3.38 3.38 3.38 1.87 0 3.38-1.51 3.38-3.38 0-1.87-1.51-3.38-3.38-3.38a3.38 3.38 0 0 0-3.38 3.38z" />
  <path d="M15.25 12H16c.82 0 1.5-.67 1.5-1.5 0-.82-.68-1.5-1.5-1.5s-1.5.67-1.5 1.5v.75c0 .41.34.75.75.75z" />
</svg>
