<svg
  width="24"
  height="24"
  viewBox="0 0 24 24"
  xmlns="http://www.w3.org/2000/svg"
  fill="none"
  stroke="currentColor"
  stroke-width="2"
  stroke-linecap="round"
  stroke-linejoin="round"
>
  <path d="M16.05 7.67c-.24-.18-.44-.41-.55-.64l-1.76-3.52c-.95-1.91-2.51-1.91-3.47 0L8.5 7.03c-.12.25-.34.48-.59.67" />
  <path d="M5.28 18.65l.57-2.47c.13-.58-.1-1.39-.52-1.81l-2.48-2.48c-1.46-1.46-.99-2.94 1.05-3.28" />
  <path d="M20.1 8.61c2.04.34 2.52 1.82 1.05 3.28l-2.48 2.48c-.42.42-.65 1.23-.52 1.81l.71 3.07c.56 2.43-.73 3.37-2.88 2.1l-2.99-1.77c-.54-.32-1.43-.32-1.98 0l-2.99 1.77" />
  <path d="M22 2L2 22" />
</svg>
