<svg
  width="24"
  height="24"
  viewBox="0 0 24 24"
  xmlns="http://www.w3.org/2000/svg"
  fill="none"
  stroke="currentColor"
  stroke-width="2"
  stroke-linecap="round"
  stroke-linejoin="round"
>
  <path d="M16.42 7.95a6.253 6.253 0 0 1 0 8.84 6.253 6.253 0 0 1-8.84 0 6.253 6.253 0 0 1 0-8.84 6.254 6.254 0 0 1 5.02-1.8" />
  <path d="M8.251 21.64c-2-.8-3.75-2.25-4.91-4.26a9.89 9.89 0 0 1-1.25-6.25" />
  <path d="M5.85 4.48A9.936 9.936 0 0 1 12 2.36c2.27 0 4.36.77 6.04 2.05" />
  <path d="M15.75 21.64c2-.8 3.75-2.25 4.91-4.26a9.89 9.89 0 0 0 1.25-6.25" />
</svg>
