<svg
  xmlns="http://www.w3.org/2000/svg"
  width="24"
  height="24"
  viewBox="0 0 24 24"
  class="feather feather-strongbox-2"
  fill="none"
  stroke="currentColor"
  stroke-width="2"
  stroke-linecap="round"
  stroke-linejoin="round"
>
  <path d="M9 22h6c5 0 7-2 7-7V9c0-5-2-7-7-7H9C4 2 2 4 2 9v6c0 5 2 7 7 7z" />
  <path d="M8 19h8c2 0 3-1 3-3V8c0-2-1-3-3-3H8C6 5 5 6 5 8v8c0 2 1 3 3 3z" />
  <path d="M5 9.5h2.48a2.5 2.5 0 0 1 0 5H5" />
  <path d="M19 9.99h-3" />
  <path d="M19 14h-3" />
  <path d="M7.2 12h.1" />
</svg>
