<svg
  xmlns="http://www.w3.org/2000/svg"
  width="24"
  height="24"
  viewBox="0 0 24 24"
  class="feather feather-sun"
  fill="none"
  stroke="currentColor"
  stroke-width="2"
  stroke-linecap="round"
  stroke-linejoin="round"
>
  <path d="M12 8.5V3" />
  <path d="M12 21v-5.5" />
  <path d="M10 3h4" />
  <path d="M10 21h4" />
  <path d="M8.97 10.25L4.21 7.5" />
  <path d="M19.79 16.5l-4.76-2.75" />
  <path d="M3.21 9.23l2-3.46" />
  <path d="M18.79 18.23l2-3.46" />
  <path d="M15.5 12a3.5 3.5 0 0 1-3.5 3.5 3.5 3.5 0 0 1 0-7 3.5 3.5 0 0 1 3.5 3.5z" />
  <path d="M19.79 7.5l-4.76 2.75" />
  <path d="M8.97 13.75L4.21 16.5" />
  <path d="M20.79 9.23l-2-3.46" />
  <path d="M5.21 18.23l-2-3.46" />
</svg>
