<svg
  width="24"
  height="24"
  viewBox="0 0 24 24"
  xmlns="http://www.w3.org/2000/svg"
  fill="none"
  stroke="currentColor"
  stroke-width="2"
  stroke-linecap="round"
  stroke-linejoin="round"
>
  <path d="M12 8v5" />
  <path d="M8.01 5.46c1.2-.61 2.55-.96 3.99-.96 4.83 0 8.75 3.92 8.75 8.75" />
  <path d="M12 22c-4.83 0-8.75-3.92-8.75-8.75 0-1.98.66-3.8 1.76-5.26" />
  <path d="M9 2h6" />
  <path d="M14.9 18.5v-1.16c0-1.43 1.02-2.02 2.26-1.3l1 .58 1 .58c1.24.72 1.24 1.89 0 2.61l-1 .58-1 .58c-1.24.72-2.26.13-2.26-1.3V18.5z" />
</svg>
