<svg
  width="24"
  height="24"
  viewBox="0 0 24 24"
  xmlns="http://www.w3.org/2000/svg"
  fill="none"
  stroke="currentColor"
  stroke-width="2"
  stroke-linecap="round"
  stroke-linejoin="round"
>
  <path d="M22 8.5a6.5 6.5 0 0 1-7.02 6.48 6.509 6.509 0 0 0-5.96-5.96A6.5 6.5 0 1 1 22 8.5z" />
  <path d="M4.68 20.76A6.5 6.5 0 1 1 8.5 22" />
  <path d="M5.59 2H3c-.55 0-1 .45-1 1v2.59c0 .89 1.08 1.34 1.71.71L6.3 3.71C6.92 3.08 6.48 2 5.59 2z" />
  <path d="M18.41 22H21c.55 0 1-.45 1-1v-2.59c0-.89-1.08-1.34-1.71-.71l-2.59 2.59c-.62.63-.18 1.71.71 1.71z" />
</svg>
