<svg xmlns="http://www.w3.org/2000/svg" width="24" height="24" viewBox="0 0 24 24" fill="none" stroke="currentColor" stroke-width="2" stroke-linecap="round" stroke-linejoin="round" class="feather feather-archive"><path d="M2 13v2c0 5 2 7 7 7h6c5 0 7-2 7-7V9c0-5-2-7-7-7H9C4 2 2 4 2 9"></path><path d="M18 7.75v6.75c0-1.1-.9-2-2-2H8c-1.1 0-2 .9-2 2V7.75c0-1.1.9-2 2-2h8c1.1 0 2 .9 2 2z"></path><path d="M19 15.75h-1"></path><path d="M6 15.75H5"></path><path d="M18 14v-3c0-1.1-.9-2-2-2H8c-1.1 0-2 .9-2 2v3"></path><path d="M18 14.5v1.25h-3.5a2.5 2.5 0 0 1-5 0H6V14.5c0-1.1.9-2 2-2h8c1.1 0 2 .9 2 2z"></path></svg>