<svg xmlns="http://www.w3.org/2000/svg" width="24" height="24" viewBox="0 0 24 24" fill="none" stroke="currentColor" stroke-width="2" stroke-linecap="round" stroke-linejoin="round" class="feather feather-box-search"><path d="M3.17 7.44L12 12.55l8.77-5.08"></path><path d="M12 21.61v-9.07"></path><path d="M14.07 21.52c-.57.32-1.32.48-2.07.48-.75 0-1.5-.16-2.07-.48l-5.34-2.96c-1.21-.67-2.2-2.35-2.2-3.73"></path><path d="M21.61 12.83V9.17c0-1.38-.99-3.06-2.2-3.73l-5.34-2.96c-1.14-.64-3-.64-4.14 0L4.59 5.44c-1.21.67-2.2 2.35-2.2 3.73"></path><path d="M19.2 21.4a3.2 3.2 0 1 0 0-6.4 3.2 3.2 0 0 0 0 6.4z"></path><path d="M23 22l-1-1"></path></svg>