<svg xmlns="http://www.w3.org/2000/svg" width="24" height="24" viewBox="0 0 24 24" fill="none" stroke="currentColor" stroke-width="2" stroke-linecap="round" stroke-linejoin="round" class="feather feather-building"><path d="M1.97 5.95v-.86c0-2.62 1.95-3.81 4.34-2.64l4.44 2.18c.96.47 1.75 1.72 1.75 2.78V22H4.08c-1.16 0-2.11-.93-2.11-2.07v-9.91"></path><path d="M21.97 15.06v3.78c0 2.16-1 3.16-3.16 3.16H12.5V10.42l.47.1 4.5 1.01 2.03.45c1.32.29 2.4.97 2.46 2.89.01.06.01.12.01.19z"></path><path d="M5.5 9h3.47"></path><path d="M5.5 13h3.47"></path><path d="M17.47 11.53v3.22c0 1.24-1.01 2.25-2.25 2.25s-2.25-1.01-2.25-2.25v-4.23l4.5 1.01z"></path><path d="M21.96 14.87A2.249 2.249 0 0 1 19.72 17c-1.24 0-2.25-1.01-2.25-2.25v-3.22l2.03.45c1.32.29 2.4.97 2.46 2.89z"></path></svg>