<svg xmlns="http://www.w3.org/2000/svg" width="24" height="24" viewBox="0 0 24 24" fill="none" stroke="currentColor" stroke-width="2" stroke-linecap="round" stroke-linejoin="round" class="feather feather-calendar-circle"><path d="M9.89 5.83v2"></path><path d="M14.11 5.83v2"></path><path d="M7.53 10.14h8.94"></path><path d="M13.5 17.67h-3c-2.5 0-4-1.8-4-4v-3c0-2.2 1.5-4 4-4h3c2.5 0 4 1.8 4 4v3c0 2.2-1.5 4-4 4z"></path><path d="M4 6c-1.25 1.67-2 3.75-2 6 0 5.52 4.48 10 10 10s10-4.48 10-10S17.52 2 12 2c-1.43 0-2.8.3-4.03.85"></path></svg>