<svg xmlns="http://www.w3.org/2000/svg" width="24" height="24" viewBox="0 0 24 24" fill="none" stroke="currentColor" stroke-width="2" stroke-linecap="round" stroke-linejoin="round" class="feather feather-calendar-add"><path d="M8 2v3"></path><path d="M16 2v3"></path><path d="M3.5 9.09h17"></path><path d="M18 23a4 4 0 1 0 0-8 4 4 0 0 0 0 8z"></path><path d="M19.49 19.05h-2.98"></path><path d="M18 17.59v2.99"></path><path d="M21 8.5v7.86c-.73-.83-1.8-1.36-3-1.36-2.21 0-4 1.79-4 4 0 .75.21 1.46.58 2.06.21.36.48.68.79.94H8c-3.5 0-5-2-5-5V8.5c0-3 1.5-5 5-5h8c3.5 0 5 2 5 5z"></path><path d="M11.995 13.7h.01"></path><path d="M8.294 13.7h.01"></path><path d="M8.294 16.7h.01"></path></svg>