<svg xmlns="http://www.w3.org/2000/svg" width="24" height="24" viewBox="0 0 24 24" fill="none" stroke="currentColor" stroke-width="2" stroke-linecap="round" stroke-linejoin="round" class="feather feather-candle"><path d="M6.5 22v-7"></path><path d="M6.5 5V2"></path><path d="M17.5 22v-3"></path><path d="M17.5 9V2"></path><path d="M9.5 7v6c0 1.1-.5 2-2 2h-2c-1.5 0-2-.9-2-2V7c0-1.1.5-2 2-2h2c1.5 0 2 .9 2 2z"></path><path d="M20.5 11v6c0 1.1-.5 2-2 2h-2c-1.5 0-2-.9-2-2v-6c0-1.1.5-2 2-2h2c1.5 0 2 .9 2 2z"></path></svg>