<svg xmlns="http://www.w3.org/2000/svg" width="24" height="24" viewBox="0 0 24 24" fill="none" stroke="currentColor" stroke-width="2" stroke-linecap="round" stroke-linejoin="round" class="feather feather-category"><path d="M5 10h2c2 0 3-1 3-3V5c0-2-1-3-3-3H5C3 2 2 3 2 5v2c0 2 1 3 3 3z"></path><path d="M19 2h-2c-2 0-3 1-3 3v2c0 2 1 3 3 3h2c2 0 3-1 3-3V5"></path><path d="M17 22h2c2 0 3-1 3-3v-2c0-2-1-3-3-3h-2c-2 0-3 1-3 3v2c0 2 1 3 3 3z"></path><path d="M5 22h2c2 0 3-1 3-3v-2c0-2-1-3-3-3H5c-2 0-3 1-3 3v2"></path></svg>