<svg xmlns="http://www.w3.org/2000/svg" width="24" height="24" viewBox="0 0 24 24" fill="none" stroke="currentColor" stroke-width="2" stroke-linecap="round" stroke-linejoin="round" class="feather feather-chart-1"><path d="M9 22h12"></path><path d="M2 22h4"></path><path d="M3 13v5c0 .55.45 1 1 1h1.6c.55 0 1-.45 1-1V9.38c0-.55-.45-1-1-1H4c-.55 0-1 .45-1 1"></path><path d="M12.8 5.19h-1.6c-.55 0-1 .45-1 1V18c0 .55.45 1 1 1h1.6c.55 0 1-.45 1-1V6.19c0-.55-.45-1-1-1z"></path><path d="M21 3c0-.55-.45-1-1-1h-1.6c-.55 0-1 .45-1 1v15c0 .55.45 1 1 1H20c.55 0 1-.45 1-1V7.13"></path></svg>