<svg xmlns="http://www.w3.org/2000/svg" width="24" height="24" viewBox="0 0 24 24" fill="none" stroke="currentColor" stroke-width="2" stroke-linecap="round" stroke-linejoin="round" class="feather feather-cloud"><path d="M15.85 9.92c.52-.26 1.09-.4 1.67-.41"></path><path d="M11.99 3.9c-4.01-.33-8.37 3.13-6.4 8.62"></path><path d="M7.26 12.93a3.79 3.79 0 0 0-1.72-.41c-4.68.33-4.68 7.14 0 7.47h11.09c1.35.01 2.65-.49 3.64-1.4 3.29-2.87 1.53-8.64-2.8-9.19-.24-1.46-.78-2.61-1.49-3.47"></path><path d="M15.84 9.84c.52-.26 1.09-.4 1.67-.41"></path></svg>