<svg xmlns="http://www.w3.org/2000/svg" width="24" height="24" viewBox="0 0 24 24" fill="none" stroke="currentColor" stroke-width="2" stroke-linecap="round" stroke-linejoin="round" class="feather feather-cloud-remove"><path d="M5.54 11.12c-4.68.33-4.68 7.14 0 7.47h1.92"></path><path d="M17.47 8c4.33.55 6.08 6.32 2.8 9.19-1 .91-2.29 1.41-3.64 1.4h-.09"></path><path d="M5.589 11.12c-2.53-7.03 5.33-10.74 9.54-7.42"></path><path d="M12.97 17.61l-2.11-2.11"></path><path d="M12.95 15.52l-2.12 2.12"></path><path d="M17 16.53c0 .74-.16 1.44-.46 2.06-.08.18-.17.35-.27.51A4.961 4.961 0 0 1 12 21.53c-1.82 0-3.41-.98-4.27-2.43-.1-.16-.19-.33-.27-.51-.3-.62-.46-1.32-.46-2.06 0-2.76 2.24-5 5-5s5 2.24 5 5z"></path></svg>