<svg xmlns="http://www.w3.org/2000/svg" width="24" height="24" viewBox="0 0 24 24" fill="none" stroke="currentColor" stroke-width="2" stroke-linecap="round" stroke-linejoin="round" class="feather feather-coffee"><path d="M17.79 10.47v7.32A4.21 4.21 0 0 1 13.58 22H6.21C3.89 22 2 20.11 2 17.79v-7.32a4.21 4.21 0 0 1 4.21-4.21h7.37c2.32 0 4.21 1.89 4.21 4.21z"></path><path d="M5.5 4V2.25"></path><path d="M9.5 4V2.25"></path><path d="M13.5 4V2.25"></path><path d="M22 13.16c0 2.32-1.89 4.21-4.21 4.21V8.95A4.21 4.21 0 0 1 22 13.16z"></path><path d="M2 12h15.51"></path></svg>