<svg xmlns="http://www.w3.org/2000/svg" width="24" height="24" viewBox="0 0 24 24" fill="none" stroke="currentColor" stroke-width="2" stroke-linecap="round" stroke-linejoin="round" class="feather feather-command"><path d="M16 8H8v8h8V8z"></path><path d="M5 22c1.65 0 3-1.35 3-3v-3H5c-1.65 0-3 1.35-3 3s1.35 3 3 3z"></path><path d="M5 8h3V5c0-1.65-1.35-3-3-3S2 3.35 2 5s1.35 3 3 3z"></path><path d="M16 8h3c1.65 0 3-1.35 3-3s-1.35-3-3-3-3 1.35-3 3v3z"></path><path d="M19 22c1.65 0 3-1.35 3-3s-1.35-3-3-3h-3v3c0 1.65 1.35 3 3 3z"></path></svg>