<svg xmlns="http://www.w3.org/2000/svg" width="24" height="24" viewBox="0 0 24 24" fill="none" stroke="currentColor" stroke-width="2" stroke-linecap="round" stroke-linejoin="round" class="feather feather-data"><path d="M20 14a2 2 0 1 0 0-4 2 2 0 0 0 0 4z"></path><path d="M20 6a2 2 0 1 0 0-4 2 2 0 0 0 0 4z"></path><path d="M20 22a2 2 0 1 0 0-4 2 2 0 0 0 0 4z"></path><path d="M4 14a2 2 0 1 0 0-4 2 2 0 0 0 0 4z"></path><path d="M6 12h12"></path><path d="M18 4h-4c-2 0-3 1-3 3v10c0 2 1 3 3 3h4"></path></svg>