<svg xmlns="http://www.w3.org/2000/svg" width="24" height="24" viewBox="0 0 24 24" fill="none" stroke="currentColor" stroke-width="2" stroke-linecap="round" stroke-linejoin="round" class="feather feather-devices"><path d="M15.72 9.69a5.251 5.251 0 0 0-7.44 0 5.25 5.25 0 0 0 0 7.44 5.251 5.251 0 0 0 7.44 0 5.23 5.23 0 0 0 1.54-3.72"></path><path d="M12 13.41L10.41 15"></path><path d="M19.07 6.34c.15.15.15.4 0 .56-.15.15-.4.15-.56 0-.16-.15-.15-.4 0-.56.15-.16.41-.16.56 0z"></path><path d="M19.07 6.34c.15.15.15.4 0 .56-.15.15-.4.15-.56 0-.16-.15-.15-.4 0-.56.15-.16.41-.16.56 0z"></path><path d="M5.49 19.92c.15.15.15.4 0 .56-.15.16-.4.15-.56 0a.405.405 0 0 1 0-.56c.15-.16.41-.16.56 0z"></path><path d="M5.49 19.92c.15.15.15.4 0 .56-.15.16-.4.15-.56 0a.405.405 0 0 1 0-.56c.15-.16.41-.16.56 0z"></path><path d="M21.88 13.13c.15.15.15.4 0 .56-.15.15-.4.15-.56 0-.16-.15-.15-.4 0-.56.15-.16.41-.16.56 0z"></path><path d="M21.88 13.13c.15.15.15.4 0 .56-.15.15-.4.15-.56 0-.16-.15-.15-.4 0-.56.15-.16.41-.16.56 0z"></path><path d="M2.67 13.13c.15.15.15.4 0 .56-.15.16-.4.15-.56 0a.405.405 0 0 1 0-.56c.16-.16.41-.16.56 0z"></path><path d="M2.67 13.13c.15.15.15.4 0 .56-.15.16-.4.15-.56 0a.405.405 0 0 1 0-.56c.16-.16.41-.16.56 0z"></path><path d="M19.07 19.92c.15.15.15.4 0 .56-.15.15-.4.15-.56 0-.16-.15-.15-.4 0-.56.16-.16.41-.16.56 0z"></path><path d="M19.07 19.92c.15.15.15.4 0 .56-.15.15-.4.15-.56 0-.16-.15-.15-.4 0-.56.16-.16.41-.16.56 0z"></path><path d="M5.49 6.34c.15.15.15.4 0 .56-.15.16-.4.15-.56 0a.405.405 0 0 1 0-.56c.15-.16.41-.16.56 0z"></path><path d="M5.49 6.34c.15.15.15.4 0 .56-.15.16-.4.15-.56 0a.405.405 0 0 1 0-.56c.15-.16.41-.16.56 0z"></path><path d="M12.28 3.52c.15.15.15.4 0 .56-.15.16-.4.15-.56 0-.16-.15-.15-.4 0-.56.15-.16.41-.15.56 0z"></path><path d="M12.28 3.52c.15.15.15.4 0 .56-.15.16-.4.15-.56 0-.16-.15-.15-.4 0-.56.15-.16.41-.15.56 0z"></path></svg>