<svg xmlns="http://www.w3.org/2000/svg" width="24" height="24" viewBox="0 0 24 24" fill="none" stroke="currentColor" stroke-width="2" stroke-linecap="round" stroke-linejoin="round" class="feather feather-document-copy"><path d="M2 12.6C2 8.6 3.6 7 7.6 7h3"></path><path d="M17 13.4v3c0 4-1.6 5.6-5.6 5.6H7.6c-4 0-5.6-1.6-5.6-5.6"></path><path d="M13.8 13.4c-2.4 0-3.2-.8-3.2-3.2V7l6.4 6.4"></path><path d="M11.6 2h4"></path><path d="M7 5c0-1.66 1.34-3 3-3h2.62"></path><path d="M22 8v6.19c0 1.55-1.26 2.81-2.81 2.81"></path><path d="M22 8h-3c-2.25 0-3-.75-3-3V2l6 6z"></path></svg>