<svg xmlns="http://www.w3.org/2000/svg" width="24" height="24" viewBox="0 0 24 24" fill="none" stroke="currentColor" stroke-width="2" stroke-linecap="round" stroke-linejoin="round" class="feather feather-gallery-remove"><path d="M9 6c-1.1 0-2 .9-2 2s.9 2 2 2 2-.9 2-2"></path><path d="M2 12.89V15c0 5 2 7 7 7h6c5 0 7-2 7-7v-5"></path><path d="M13 2H9C4 2 2 4 2 9"></path><path d="M2.67 18.95l4.93-3.31c.79-.53 1.93-.47 2.64.14l.33.29c.78.67 2.04.67 2.82 0l4.16-3.57c.78-.67 2.04-.67 2.82 0L22 13.9"></path><path d="M16.56 5.94l3.88-3.88"></path><path d="M20.44 5.94l-3.88-3.88"></path></svg>