<svg xmlns="http://www.w3.org/2000/svg" width="24" height="24" viewBox="0 0 24 24" fill="none" stroke="currentColor" stroke-width="2" stroke-linecap="round" stroke-linejoin="round" class="feather feather-game"><path d="M9.57 12.46l-3.05 3.05"></path><path d="M6.55 12.49l3.05 3.05"></path><path d="M13.53 14h.01"></path><path d="M17.47 14h.01"></path><path d="M15.5 15.98v-.02"></path><path d="M15.5 12.04v-.02"></path><path d="M2 15c0 5 2 7 7 7h6c5 0 7-2 7-7v-2c0-5-2-7-7-7H9C5.25 6 3.19 7.12 2.39 9.8"></path><path d="M13.01 2L13 3.01A1 1 0 0 1 12 4h-.03c-.55 0-.99.45-.99 1s.45 1 1 1h1"></path></svg>