<svg xmlns="http://www.w3.org/2000/svg" width="24" height="24" viewBox="0 0 24 24" fill="none" stroke="currentColor" stroke-width="2" stroke-linecap="round" stroke-linejoin="round" class="feather feather-gps-slash"><path d="M9 18.88c.92.4 1.93.62 3 .62 4.14 0 7.5-3.36 7.5-7.5 0-1.07-.22-2.08-.62-3"></path><path d="M4.77 10.01c-.18.63-.27 1.3-.27 1.99 0 2.01.79 3.84 2.08 5.19"></path><path d="M17.21 6.6A7.494 7.494 0 0 0 12 4.5c-1.92 0-3.67.72-5 1.91"></path><path d="M12 4V2"></path><path d="M4 12H2"></path><path d="M12 20v2"></path><path d="M20 12h2"></path><path d="M14.12 9.88l-4.24 4.24a2.996 2.996 0 1 1 4.24-4.24z"></path><path d="M22 2L2 22"></path></svg>