<svg xmlns="http://www.w3.org/2000/svg" width="24" height="24" viewBox="0 0 24 24" fill="none" stroke="currentColor" stroke-width="2" stroke-linecap="round" stroke-linejoin="round" class="feather feather-grid-lock"><path d="M22 11V9c0-5-2-7-7-7H9C4 2 2 4 2 9v6c0 5 2 7 7 7h1"></path><path d="M5.03 8.5H22"></path><path d="M2.03 15.5H12"></path><path d="M8.51 21.99V2.01"></path><path d="M15.51 11.99V2.01"></path><path d="M15.6 17.2v-.8c0-1.33.4-2.4 2.4-2.4s2.4 1.07 2.4 2.4v.8"></path><path d="M20 22h-4c-1.6 0-2-.4-2-2v-.8c0-1.6.4-2 2-2h4c1.6 0 2 .4 2 2v.8c0 1.6-.4 2-2 2z"></path></svg>