<svg xmlns="http://www.w3.org/2000/svg" width="24" height="24" viewBox="0 0 24 24" fill="none" stroke="currentColor" stroke-width="2" stroke-linecap="round" stroke-linejoin="round" class="feather feather-hierarchy-2"><path d="M5 15V8"></path><path d="M5.25 22a3.25 3.25 0 1 0 0-6.5 3.25 3.25 0 0 0 0 6.5z"></path><path d="M5 8a3 3 0 1 0 0-6 3 3 0 0 0 0 6z"></path><path d="M19 8a3 3 0 1 0 0-6 3 3 0 0 0 0 6z"></path><path d="M5.13 15a4.058 4.058 0 0 1 3.94-3.04l3.43.01c.85 0 1.67-.17 2.4-.49"></path></svg>