<svg xmlns="http://www.w3.org/2000/svg" width="24" height="24" viewBox="0 0 24 24" fill="none" stroke="currentColor" stroke-width="2" stroke-linecap="round" stroke-linejoin="round" class="feather feather-layer"><path d="M18.92 5.54c1.7.75 1.7 1.99 0 2.74l-5.9 2.62c-.67.3-1.77.3-2.44 0l-5.9-2.62c-1.7-.75-1.7-1.99 0-2.74l5.9-2.62c.67-.3 1.77-.3 2.44 0l1.92.85"></path><path d="M3 11c0 .84.63 1.81 1.4 2.15l6.79 3.02c.52.23 1.11.23 1.62 0l6.79-3.02c.77-.34 1.4-1.31 1.4-2.15"></path><path d="M3 16c0 .93.55 1.77 1.4 2.15l6.79 3.02c.52.23 1.11.23 1.62 0l6.79-3.02c.85-.38 1.4-1.22 1.4-2.15"></path></svg>