<svg xmlns="http://www.w3.org/2000/svg" width="24" height="24" viewBox="0 0 24 24" fill="none" stroke="currentColor" stroke-width="2" stroke-linecap="round" stroke-linejoin="round" class="feather feather-lock-circle"><path d="M9 11v-1c0-1.66.5-3 3-3s3 1.34 3 3v1"></path><path d="M12 14.6a.6.6 0 1 0 0-1.2.6.6 0 0 0 0 1.2z"></path><path d="M14.5 17h-5c-2 0-2.5-.5-2.5-2.5v-1c0-2 .5-2.5 2.5-2.5h5c2 0 2.5.5 2.5 2.5v1c0 2-.5 2.5-2.5 2.5z"></path><path d="M4 6c-1.25 1.67-2 3.75-2 6 0 5.52 4.48 10 10 10s10-4.48 10-10S17.52 2 12 2c-1.43 0-2.8.3-4.03.85"></path></svg>