<svg xmlns="http://www.w3.org/2000/svg" width="24" height="24" viewBox="0 0 24 24" fill="none" stroke="currentColor" stroke-width="2" stroke-linecap="round" stroke-linejoin="round" class="feather feather-mask"><path d="M2 12c0 2.76 1.12 5.26 2.93 7.07L19.07 4.93A9.969 9.969 0 0 0 12 2C8.07 2 4.67 4.27 3.03 7.57"></path><path d="M22 12c0 5.52-4.48 10-10 10-2.76 0-5.26-1.12-7.07-2.93L19.07 4.93A9.969 9.969 0 0 1 22 12z"></path><path d="M7.76 16.24l5.65 5.66"></path><path d="M11.29 12.71l6.58 6.57"></path><path d="M14.83 9.17l6.29 6.3"></path></svg>