<svg xmlns="http://www.w3.org/2000/svg" width="24" height="24" viewBox="0 0 24 24" fill="none" stroke="currentColor" stroke-width="2" stroke-linecap="round" stroke-linejoin="round" class="feather feather-maximize-1"><path d="M2 9V6.5C2 4.01 4.01 2 6.5 2H9"></path><path d="M15 2h2.5C19.99 2 22 4.01 22 6.5V9"></path><path d="M22 16v1.5c0 2.49-2.01 4.5-4.5 4.5H16"></path><path d="M9 22H6.5C4.01 22 2 19.99 2 17.5V15"></path><path d="M18 12v-2m-1.05 2H18h-1.05zM6 12h8-8zm0 0v-2 2zm0 0v2-2zm12 0v2-2z"></path><path d="M12 6h2m-2 12V6v12zm0 0h2-2zm0 0h-2 2zm0-12h-2 2z"></path></svg>