<svg xmlns="http://www.w3.org/2000/svg" width="24" height="24" viewBox="0 0 24 24" fill="none" stroke="currentColor" stroke-width="2" stroke-linecap="round" stroke-linejoin="round" class="feather feather-message-edit"><path d="M22 8c0-4-2-6-6-6H8C4 2 2 4 2 8v13c0 .55.45 1 1 1h13c4 0 6-2 6-6v-4"></path><path d="M15.51 11.74l.65-.65c.04-.04.08-.08.12-.13.81-.86 1.13-1.87-.12-3.12-1.32-1.32-2.36-.89-3.25 0l-5.19 5.19c-.2.2-.39.59-.43.87l-.28 1.98c-.1.72.4 1.22 1.12 1.12l1.98-.28c.28-.04.67-.23.87-.43l1.94-1.94"></path><path d="M12.17 8.58a4.688 4.688 0 0 0 3.25 3.25"></path></svg>