<svg xmlns="http://www.w3.org/2000/svg" width="24" height="24" viewBox="0 0 24 24" fill="none" stroke="currentColor" stroke-width="2" stroke-linecap="round" stroke-linejoin="round" class="feather feather-mini-music-sqaure"><path d="M2 12.98V15c0 5 2 7 7 7h2"></path><path d="M22 10V9c0-5-2-7-7-7H9C4 2 2 4 2 9"></path><path d="M15.27 22a1.44 1.44 0 1 0 0-2.88 1.44 1.44 0 0 0 0 2.88z"></path><path d="M22 19.6v-5.64c0-1.2-.75-1.37-1.52-1.16l-2.89.79c-.52.14-.89.56-.89 1.16v5.82"></path><path d="M20.56 21.04a1.44 1.44 0 1 0-.001-2.88 1.44 1.44 0 0 0 0 2.88z"></path><path d="M16.71 16.43L22 14.99"></path></svg>