<svg xmlns="http://www.w3.org/2000/svg" width="24" height="24" viewBox="0 0 24 24" fill="none" stroke="currentColor" stroke-width="2" stroke-linecap="round" stroke-linejoin="round" class="feather feather-money-4"><path d="M2 8.5c0-3.5 2-5 5-5h10c3 0 5 1.5 5 5v7c0 3.5-2 5-5 5H7c-3 0-5-1.5-5-5v-2.97"></path><path d="M15 12c0-1.66-1.34-3-3-3s-3 1.34-3 3 1.34 3 3 3"></path><path d="M8.5 6H7a2.5 2.5 0 0 0-2.5 2.5V10"></path><path d="M15.5 6H17a2.5 2.5 0 0 1 2.5 2.5V10"></path><path d="M8.5 18H7a2.5 2.5 0 0 1-2.5-2.5V14"></path><path d="M15.5 18H17a2.5 2.5 0 0 0 2.5-2.5V14"></path></svg>