<svg xmlns="http://www.w3.org/2000/svg" width="24" height="24" viewBox="0 0 24 24" fill="none" stroke="currentColor" stroke-width="2" stroke-linecap="round" stroke-linejoin="round" class="feather feather-money-2"><path d="M2 12.53v2.97c0 3.5 2 5 5 5h10c3 0 5-1.5 5-5v-7c0-3.5-2-5-5-5H7c-3 0-5 1.5-5 5V9h1c3 0 4-1 4-4V4"></path><path d="M15 12c0-1.66-1.34-3-3-3s-3 1.34-3 3 1.34 3 3 3"></path><path d="M22 9h-1c-3 0-4-1-4-4V4"></path><path d="M2 15h1c3 0 4 1 4 4v1"></path><path d="M22 15h-1c-3 0-4 1-4 4v1"></path></svg>