<svg xmlns="http://www.w3.org/2000/svg" width="24" height="24" viewBox="0 0 24 24" fill="none" stroke="currentColor" stroke-width="2" stroke-linecap="round" stroke-linejoin="round" class="feather feather-music-filter"><path d="M2 3h20"></path><path d="M2 9h9"></path><path d="M2 15h6"></path><path d="M2 21h4"></path><path d="M11.84 22a2.18 2.18 0 1 0 0-4.36 2.18 2.18 0 0 0 0 4.36z"></path><path d="M22 18.37V9.86c0-1.81-1.14-2.06-2.29-1.75L15.36 9.3c-.79.22-1.34.84-1.34 1.75v8.77"></path><path d="M19.82 20.55a2.18 2.18 0 1 0 0-4.36 2.18 2.18 0 0 0 0 4.36z"></path><path d="M14.02 13.6L22 11.42"></path></svg>