<svg xmlns="http://www.w3.org/2000/svg" width="24" height="24" viewBox="0 0 24 24" fill="none" stroke="currentColor" stroke-width="2" stroke-linecap="round" stroke-linejoin="round" class="feather feather-percentage-square"><path d="M9 2h6c5 0 7 2 7 7v6c0 5-2 7-7 7H9c-5 0-7-2-7-7V9c0-5 2-7 7-7z"></path><path d="M8.57 15.27l6.54-6.54"></path><path d="M8.98 10.37a1.23 1.23 0 1 0 0-2.46 1.23 1.23 0 0 0 0 2.46z"></path><path d="M15.52 16.09a1.23 1.23 0 1 0 0-2.46 1.23 1.23 0 0 0 0 2.46z"></path></svg>