<svg xmlns="http://www.w3.org/2000/svg" width="24" height="24" viewBox="0 0 24 24" fill="none" stroke="currentColor" stroke-width="2" stroke-linecap="round" stroke-linejoin="round" class="feather feather-recovery-convert"><path d="M13.6 11.58v2.73c0 2.28-.91 3.19-3.19 3.19H7.69c-2.27 0-3.19-.91-3.19-3.19v-2.73c0-2.27.91-3.18 3.19-3.18h2.73c2.27 0 3.18.91 3.18 3.18z"></path><path d="M17.5 7.68v2.73c0 2.28-.91 3.19-3.19 3.19h-.71v-2.02c0-2.27-.91-3.18-3.19-3.18H8.4v-.72c0-2.28.91-3.18 3.19-3.18h2.73c2.27 0 3.18.91 3.18 3.18z"></path><path d="M21 14c0 3.87-3.13 7-7 7l1.05-1.75"></path><path d="M1 8c0-3.87 3.13-7 7-7L6.95 2.75"></path></svg>