<svg xmlns="http://www.w3.org/2000/svg" width="24" height="24" viewBox="0 0 24 24" fill="none" stroke="currentColor" stroke-width="2" stroke-linecap="round" stroke-linejoin="round" class="feather feather-reserve"><path d="M18.97 22h-14c-3 0-3-1.35-3-3v-1c0-.55.45-1 1-1h18c.55 0 1 .45 1 1v1c0 1.65 0 3-3 3z"></path><path d="M20.72 13v4H3.27v-4a8.001 8.001 0 0 1 8-8h1.45c.58 0 1.15.06 1.69.18 3.61.78 6.31 3.98 6.31 7.82z"></path><path d="M14.5 4.5c0 .24-.03.46-.09.68-.54-.12-1.11-.18-1.69-.18h-1.45c-.58 0-1.14.06-1.68.18-.06-.22-.09-.44-.09-.68a2.5 2.5 0 0 1 5 0z"></path><path d="M15 11H9"></path></svg>