<svg xmlns="http://www.w3.org/2000/svg" width="24" height="24" viewBox="0 0 24 24" fill="none" stroke="currentColor" stroke-width="2" stroke-linecap="round" stroke-linejoin="round" class="feather feather-ruler&pen"><path d="M14.47 2c-2 0-3 1-3 3v14c0 2 1 3 3 3h4c2 0 3-1 3-3V5c0-2-1-3-3-3"></path><path d="M11.47 6h5"></path><path d="M11.47 18h4"></path><path d="M11.47 13.95l5 .05"></path><path d="M11.47 10h3"></path><path d="M2.53 9.02V4.95C2.53 3.33 3.86 2 5.49 2c1.62 0 2.95 1.33 2.95 2.95v12.96c0 .45-.19 1.13-.42 1.52l-.82 1.36c-.94 1.57-2.49 1.57-3.43 0l-.82-1.36c-.23-.39-.42-1.07-.42-1.52v-3.96"></path><path d="M8.44 7H2.53"></path></svg>