<svg xmlns="http://www.w3.org/2000/svg" width="24" height="24" viewBox="0 0 24 24" fill="none" stroke="currentColor" stroke-width="2" stroke-linecap="round" stroke-linejoin="round" class="feather feather-simcard-2"><path d="M2 14.03v-3.72c0-2.34 1.56-3.89 3.89-3.89h3.83c1.03 0 2.02.41 2.75 1.14l2.39 2.38A3.89 3.89 0 0 1 16 12.69v5.39c0 2.34-1.56 3.89-3.89 3.89H5.89C3.56 21.97 2 20.42 2 18.08"></path><path d="M22 8.25v5.39c0 2.33-1.56 3.89-3.89 3.89H16v-4.84c0-1.03-.41-2.02-1.14-2.75l-2.39-2.38a3.89 3.89 0 0 0-2.75-1.14H8v-.56c0-2.33 1.56-3.89 3.89-3.89h3.83c1.03 0 2.02.41 2.75 1.14l2.39 2.39A3.89 3.89 0 0 1 22 8.25z"></path></svg>