<svg xmlns="http://www.w3.org/2000/svg" width="24" height="24" viewBox="0 0 24 24" fill="none" stroke="currentColor" stroke-width="2" stroke-linecap="round" stroke-linejoin="round" class="feather feather-smileys"><path d="M2 6.2C2 3.2 3.2 2 6.2 2h3.6c3 0 4.2 1.2 4.2 4.2V10c-2.79.05-3.95 1.21-4 4H6.2C3.2 14 2 12.8 2 9.8"></path><path d="M6.96 5.87c-.53-.36-1.23-.36-1.76.02"></path><path d="M10.96 5.87c-.53-.36-1.23-.36-1.76.02"></path><path d="M8.16 11.42H5.84c-.3 0-.54-.24-.54-.54 0-1.49 1.21-2.7 2.7-2.7.64 0 1.23.22 1.69.59"></path><path d="M22 17.8c0 3-1.2 4.2-4.2 4.2h-3.6c-3 0-4.2-1.2-4.2-4.2V14c.05-2.79 1.21-3.95 4-4h3.8c3 0 4.2 1.2 4.2 4.2"></path><path d="M14.96 13.62c-.53.36-1.23.36-1.76-.02"></path><path d="M18.96 13.62c-.53.36-1.23.36-1.76-.02"></path><path d="M13.84 16.18h4.32c.3 0 .54.24.54.54 0 1.49-1.21 2.7-2.7 2.7-1.49 0-2.7-1.21-2.7-2.7 0-.3.24-.54.54-.54z"></path></svg>