<svg xmlns="http://www.w3.org/2000/svg" width="24" height="24" viewBox="0 0 24 24" fill="none" stroke="currentColor" stroke-width="2" stroke-linecap="round" stroke-linejoin="round" class="feather feather-sun"><path d="M12 8V6.5"></path><path d="M12 4V3"></path><path d="M12 21v-5.5"></path><path d="M10 3h4"></path><path d="M10 21h4"></path><path d="M8.97 10.25L4.21 7.5"></path><path d="M19.79 16.5l-4.76-2.75"></path><path d="M3.21 9.23l2-3.46"></path><path d="M18.79 18.23l2-3.46"></path><path d="M8.97 13.75A3.47 3.47 0 0 1 8.5 12 3.5 3.5 0 0 1 12 8.5a3.5 3.5 0 0 1 0 7"></path><path d="M19.79 7.5l-2.74 1.58-2.02 1.17"></path><path d="M8.97 13.75L4.21 16.5"></path><path d="M20.79 9.23l-2-3.46"></path><path d="M5.21 18.23l-2-3.46"></path></svg>