<svg xmlns="http://www.w3.org/2000/svg" width="24" height="24" viewBox="0 0 24 24" fill="none" stroke="currentColor" stroke-width="2" stroke-linecap="round" stroke-linejoin="round" class="feather feather-tag-2"><path d="M4.405 15.526l4.53 4.53a4.78 4.78 0 0 0 6.75 0l4.39-4.39a4.78 4.78 0 0 0 0-6.75l-4.54-4.52a4.75 4.75 0 0 0-3.6-1.39l-5 .24c-2 .09-3.59 1.68-3.69 3.67l-.24 5c-.06 1.35.45 2.66 1.4 3.61z"></path><path d="M9.735 12.226a2.5 2.5 0 1 0 0-5 2.5 2.5 0 0 0 0 5z"></path><path d="M13.235 17.226l4-4"></path></svg>