<svg xmlns="http://www.w3.org/2000/svg" width="24" height="24" viewBox="0 0 24 24" fill="none" stroke="currentColor" stroke-width="2" stroke-linecap="round" stroke-linejoin="round" class="feather feather-video"><path d="M2 7.79c0-3.16 1.05-4.21 4.21-4.21h6.32c3.16 0 4.21 1.05 4.21 4.21v8.42c0 3.16-1.05 4.21-4.21 4.21H6.21c-3.16 0-4.21-2.1-4.21-4.21v-4.09"></path><path d="M19.52 17.1l-2.78-1.95V8.84l2.78-1.95c1.36-.95 2.48-.37 2.48 1.3v7.62c0 1.67-1.12 2.25-2.48 1.29z"></path><path d="M13 9.5c0-.83-.67-1.5-1.5-1.5S10 8.67 10 9.5s.67 1.5 1.5 1.5"></path></svg>